{
  "accessors": [
    {
      "bufferView": 2,
      "componentType": 5126,
      "count": 13114,
      "max": [
        18.923055648803711,
        57.256557464599609,
        5.1843991279602051
      ],
      "min": [
        -18.923057556152344,
        -6.0505023002624512,
        -4.9451265335083008
      ],
      "type": "VEC3"
    },
    {
      "bufferView": 2,
      "byteOffset": 157368,
      "componentType": 5126,
      "count": 13114,
      "max": [
        0.99991005659103394,
        0.99997454881668091,
        0.99998325109481812
      ],
      "min": [
        -0.99991005659103394,
        -0.9999544620513916,
        -0.99988645315170288
      ],
      "type": "VEC3"
    },
    {
      "bufferView": 3,
      "componentType": 5126,
      "count": 13114,
      "max": [
        0.9999995231628418,
        0.99992895126342773,
        0.99987441301345825,
        1
      ],
      "min": [
        -0.99999922513961792,
        -0.99998688697814941,
        -0.9999995231628418,
        1
      ],
      "type": "VEC4"
    },
    {
      "bufferView": 1,
      "componentType": 5126,
      "count": 13114,
      "max": [
        0.99652999639511108,
        0.9976000189781189
      ],
      "min": [
        0.0019900000188499689,
        0.0014299999456852674
      ],
      "type": "VEC2"
    },
    {
      "bufferView": 0,
      "componentType": 5125,
      "count": 68064,
      "max": [
        13113
      ],
      "min": [
        0
      ],
      "type": "SCALAR"
    },
    {
      "bufferView": 2,
      "byteOffset": 314736,
      "componentType": 5126,
      "count": 764,
      "max": [
        1.5635126829147339,
        59.960124969482422,
        3.9332189559936523
      ],
      "min": [
        -1.563021183013916,
        59.038871765136719,
        3.0050897598266602
      ],
      "type": "VEC3"
    },
    {
      "bufferView": 2,
      "byteOffset": 323904,
      "componentType": 5126,
      "count": 764,
      "max": [
        0.98732197284698486,
        0.99199807643890381,
        0.99987202882766724
      ],
      "min": [
        -0.98732304573059082,
        -0.99199873208999634,
        -0.99987179040908813
      ],
      "type": "VEC3"
    },
    {
      "bufferView": 3,
      "byteOffset": 209824,
      "componentType": 5126,
      "count": 764,
      "max": [
        0.98747491836547852,
        0.9919205904006958,
        0.99533134698867798,
        1
      ],
      "min": [
        -0.99212831258773804,
        -0.98018050193786621,
        -0.98269456624984741,
        -1
      ],
      "type": "VEC4"
    },
    {
      "bufferView": 1,
      "byteOffset": 104912,
      "componentType": 5126,
      "count": 764,
      "max": [
        0.85574477910995483,
        0.85574477910995483
      ],
      "min": [
        0.14425522089004517,
        0.14425522089004517
      ],
      "type": "VEC2"
    },
    {
      "bufferView": 0,
      "byteOffset": 272256,
      "componentType": 5125,
      "count": 4560,
      "max": [
        763
      ],
      "min": [
        0
      ],
      "type": "SCALAR"
    }
  ],
  "asset": {
    "extras": {
      "author": "Daniel Louis (https://sketchfab.com/Deviant_D_Louis)",
      "license": "CC-BY-4.0 (http://creativecommons.org/licenses/by/4.0/)",
      "source": "https://sketchfab.com/models/764ae1db9c6b4756b096ed13f08e1014",
      "title": "Free Male Base Mesh"
    },
    "generator": "Sketchfab-3.28.5",
    "version": "2.0"
  },
  "bufferViews": [
    {
      "buffer": 0,
      "byteLength": 290496,
      "byteOffset": 0,
      "name": "floatBufferViews",
      "target": 34963
    },
    {
      "buffer": 0,
      "byteLength": 111024,
      "byteOffset": 290496,
      "byteStride": 8,
      "name": "floatBufferViews",
      "target": 34962
    },
    {
      "buffer": 0,
      "byteLength": 333072,
      "byteOffset": 401520,
      "byteStride": 12,
      "name": "floatBufferViews",
      "target": 34962
    },
    {
      "buffer": 0,
      "byteLength": 222048,
      "byteOffset": 734592,
      "byteStride": 16,
      "name": "floatBufferViews",
      "target": 34962
    }
  ],
  "buffers": [
    {
      "byteLength": 956640,
      "uri": "scene.bin"
    }
  ],
  "images": [
    {
      "uri": "textures/blinn2_baseColor.png"
    },
    {
      "uri": "textures/blinn2_normal.png"
    },
    {
      "uri": "textures/blinn2_metallicRoughness.png"
    },
    {
      "uri": "textures/blinn1_normal.jpeg"
    }
  ],
  "materials": [
    {
      "doubleSided": true,
      "emissiveFactor": [
        0,
        0,
        0
      ],
      "name": "blinn1",
      "normalTexture": {
        "index": 3,
        "scale": 1,
        "texCoord": 0
      },
      "pbrMetallicRoughness": {
        "baseColorFactor": [
          0.21427210364999999,
          0.21427210364999999,
          0.21427210364999999,
          1
        ],
        "metallicFactor": 0,
        "roughnessFactor": 0.58098323169999999
      }
    },
    {
      "doubleSided": true,
      "name": "blinn2",
      "normalTexture": {
        "index": 1,
        "scale": 1,
        "texCoord": 0
      },
      "pbrMetallicRoughness": {
        "baseColorFactor": [
          1,
          1,
          1,
          1
        ],
        "baseColorTexture": {
          "index": 0,
          "texCoord": 0
        },
        "metallicFactor": 0,
        "metallicRoughnessTexture": {
          "index": 2,
          "texCoord": 0
        },
        "roughnessFactor": 1
      }
    }
  ],
  "meshes": [
    {
      "name": "New_Body_copy:ZBrushPolyMesh3D_blinn1_0",
      "primitives": [
        {
          "attributes": {
            "NORMAL": 1,
            "POSITION": 0,
            "TANGENT": 2,
            "TEXCOORD_0": 3
          },
          "indices": 4,
          "material": 0,
          "mode": 4
        }
      ]
    },
    {
      "name": "pSphere3_blinn2_0",
      "primitives": [
        {
          "attributes": {
            "NORMAL": 6,
            "POSITION": 5,
            "TANGENT": 7,
            "TEXCOORD_0": 8
          },
          "indices": 9,
          "material": 1,
          "mode": 4
        }
      ]
    }
  ],
  "nodes": [
    {
      "children": [
        1
      ],
      "name": "RootNode (gltf orientation matrix)",
      "rotation": [
        -0.70710678118654746,
        -0,
        -0,
        0.70710678118654757
      ]
    },
    {
      "children": [
        2
      ],
      "name": "RootNode (model correction matrix)"
    },
    {
      "children": [
        3
      ],
      "matrix": [
        1,
        0,
        0,
        0,
        0,
        0,
        1,
        0,
        0,
        -1,
        0,
        0,
        0,
        0,
        0,
        1
      ],
      "name": "7ae733a48cae43a69ba85fb4287196ea.fbx"
    },
    {
      "children": [
        4,
        6
      ],
      "name": "RootNode"
    },
    {
      "children": [
        5
      ],
      "matrix": [
        1,
        0,
        0,
        0,
        0,
        1,
        0,
        0,
        0,
        0,
        1,
        0,
        0,
        6.2312731742858887,
        0,
        1
      ],
      "name": "New_Body_copy:ZBrushPolyMesh3D"
    },
    {
      "mesh": 0,
      "name": "New_Body_copy:ZBrushPolyMesh3D_blinn1_0"
    },
    {
      "children": [
        7
      ],
      "name": "pSphere3"
    },
    {
      "mesh": 1,
      "name": "pSphere3_blinn2_0"
    }
  ],
  "samplers": [
    {
      "magFilter": 9729,
      "minFilter": 9987,
      "wrapS": 10497,
      "wrapT": 10497
    }
  ],
  "scene": 0,
  "scenes": [
    {
      "name": "OSG_Scene",
      "nodes": [
        0
      ]
    }
  ],
  "textures": [
    {
      "sampler": 0,
      "source": 0
    },
    {
      "sampler": 0,
      "source": 1
    },
    {
      "sampler": 0,
      "source": 2
    },
    {
      "sampler": 0,
      "source": 3
    }
  ]
}

